# xmcd
#
# Track frame offsets:
#	150
#	20336
#	32429
#	53092
#	73130
#	86574
#	101334
#	118655
#	140636
#	162549
#	180386
#	196681
#	212589
#	229018
#	240688
#	259528
#	276390
#	294659
#	312766
#
# Disc length: 4232 seconds
#
# Revision: 1
# Processed by: cddbd v1.5.2PL0 Copyright (c) Steve Scherf et al.
# Submitted via: audiograbber 1.83.01
#
DISCID=09108613
DTITLE=Various Artist - Country&Western-Hits der USA-Tour '97
DYEAR=1997
DGENRE=Country
TTITLE0=LeAnn Rimes - How Do I Live
TTITLE1=Alan Jackson - Little Bitty
TTITLE2=Garth Brooks - Ain't Goin' Down
TTITLE3=Shania Twain - You Win My Love
TTITLE4=Trisha Yearwood - Perfect Love
TTITLE5=Brooks and Dunn - Honky Tonk Truth
TTITLE6=Chely Wright - Shut Up And Drive
TTITLE7=Deana Carter - Strawberry Wine
TTITLE8=Tim McGraw - Everywhere
TTITLE9=John Fogerty - Southern Steamline
TTITLE10=Martina McBride - A Broken Wing
TTITLE11=Yearwood and Brooks - In Another's Eyes
TTITLE12=LeAnn Womack - The Fool
TTITLE13=Ron Wood - Ragtime Annie
TTITLE14=Deana Carter - How Do I Get There
TTITLE15=LeAnn Rimes - One Way Ticket
TTITLE16=Alan Jackson - There Goes
TTITLE17=Trisha Yearwood - How Do I Live
TTITLE18=Martina McBride - I'm Little But I'm Loud
EXTD=
EXTT0=
EXTT1=
EXTT2=
EXTT3=
EXTT4=
EXTT5=
EXTT6=
EXTT7=
EXTT8=
EXTT9=
EXTT10=
EXTT11=
EXTT12=
EXTT13=
EXTT14=
EXTT15=
EXTT16=
EXTT17=
EXTT18=
PLAYORDER=
